<svg xmlns="http://www.w3.org/2000/svg" viewBox="0 0 463.21 460.46"><defs><style>.cls-1{fill:#231f20;}</style></defs><g id="Layer_2" data-name="Layer 2"><g id="Layer_1-2" data-name="Layer 1"><path class="cls-1" d="M445.42,142.38A234.07,234.07,0,0,0,363.83,41.52l-1.59-1.11-.55-.37c-.55-.38-1.1-.75-1.65-1.1-.76-.52-1.53-1-2.3-1.53l-.83-.55-1.53-1-.89-.55L353,34.39l-2.43-1.48-1-.6-2.47-1.43L345.65,30l-1-.55-1.47-.82c-.84-.47-1.66-.92-2.52-1.37-.34-.19-.69-.38-1-.55s-1-.53-1.49-.78l-1.06-.56-1.49-.76L333,23.36l-1.06-.55-1.52-.73-1.05-.5-1.55-.71-1-.47-1.6-.71-.73-.32-1.85-.81C321.32,18,320,17.45,318.75,17l-.41-.17-3.56-1.4-.28-.11c-1.26-.49-2.52-1-3.79-1.41a233.38,233.38,0,0,0-165.52,2.68l-.89.36-.25.09-3.69,1.54q-2.43,1-4.82,2.14h0q-2.33,1.06-4.63,2.2l-.24.12-4.44,2.2-.36.19q-2.17,1.13-4.32,2.28l-.4.22c-1.42.77-2.83,1.57-4.24,2.37l-.4.23c-1.41.81-2.82,1.63-4.21,2.47l-.34.21c-1.41.85-2.82,1.72-4.21,2.61l-.24.16q-2.14,1.37-4.25,2.76c-91.22,61-128.13,181-85.68,282.45,77.68,185.71,350.17,185.82,427.88,0A233.43,233.43,0,0,0,445.42,142.38Zm-27.65-1.71L364,163.13l-62.95-63,2.84-6.61,20.21-47.29A209.89,209.89,0,0,1,417.77,140.67ZM182.7,114h97.56l68.67,68.67.29,97.86-69,69H182.7l-69-69V183Zm101.16-82.9.27.08c5.87,1.54,11.71,3.34,17.45,5.41L279,89.53H184L161.4,36.6c1.45-.52,2.9-1,4.37-1.51l.15-.05q2.09-.7,4.2-1.35l.31-.1c1.39-.42,2.76-.84,4.17-1.23l.19-.06c1.47-.41,2.93-.81,4.39-1.19l.25-.08A208.93,208.93,0,0,1,283.86,31.11ZM115.76,59.78c.55-.38,1.14-.77,1.72-1.15q2.23-1.47,4.52-2.9c.55-.36,1.13-.72,1.7-1.06s1.18-.72,1.78-1.07l1.53-.92c1.71-1,3.45-2,5.19-2.94l1.54-.84c1.13-.61,2.27-1.21,3.41-1.79l1.73-.89,23.05,53.93-63,63L45.21,140.67a210.18,210.18,0,0,1,70.55-80.88Zm-91.6,172a206.21,206.21,0,0,1,11.58-68.51l53.48,22.36v92.3L35.74,300.26A206.2,206.2,0,0,1,24.16,231.76ZM138.88,417.28a209.91,209.91,0,0,1-93.67-94.43L99,300.39l63,63Zm92.6,21.79a206.29,206.29,0,0,1-70.1-12.13L184,374h94.95l22.61,52.94A206.36,206.36,0,0,1,231.48,439.07Zm92.61-21.79-23-53.91,63-63,53.77,22.47A210,210,0,0,1,324.09,417.28Zm103.14-117-53.54-22.35-.27-92.17,53.81-22.48A209.48,209.48,0,0,1,427.23,300.26Z"/></g></g></svg>