<svg xmlns="http://www.w3.org/2000/svg" viewBox="0 0 421.63 254.13"><defs><style>.cls-1{fill:#2d565e;}.cls-2{fill:#15a7ae;}.cls-3{fill:#e35544;}.cls-4{fill:#f1a31f;}</style></defs><g id="Layer_2" data-name="Layer 2"><g id="Logo1"><path class="cls-1" d="M139.18,160.83h0c-2.35-8.22-15.46-5.22-14-.06a12.3,12.3,0,0,1,.59,3.43,9.25,9.25,0,0,1-1.11,4.46,12.28,12.28,0,0,1-3,3.6,15.61,15.61,0,0,1-4.38,2.49,14.6,14.6,0,0,1-5.23.94,23.94,23.94,0,0,1-10.81-2.48,47.71,47.71,0,0,1-9.52-6.35q-4.55-3.86-8.92-8.32t-8.92-8.41a57.89,57.89,0,0,0-8.43-6.07L106.64,54.4a6.78,6.78,0,1,0-12.33-5.65l-41,89.36a9.37,9.37,0,0,0-.87,3.94,10.48,10.48,0,0,0,4.92,12.32l.1,0a53.2,53.2,0,0,1,9.18,6.86q4.45,4.13,9,8.92a85.63,85.63,0,0,0,9.87,8.92A52.87,52.87,0,0,0,97.24,186a36.61,36.61,0,0,0,14.5,2.74,29.35,29.35,0,0,0,10.72-2,27.54,27.54,0,0,0,8.83-5.49,26.38,26.38,0,0,0,5.92-8.06,22.5,22.5,0,0,0,2.15-9.7A19.45,19.45,0,0,0,139.18,160.83Z"/><path class="cls-1" d="M134.3,71.56a11.39,11.39,0,0,0,7.21-2.75A12.45,12.45,0,0,0,146,62a8.28,8.28,0,0,0-8.24-10.81,11.62,11.62,0,0,0-7.29,3,12.29,12.29,0,0,0-4.54,7,8.18,8.18,0,0,0,1.37,7.29A8.27,8.27,0,0,0,134.3,71.56Z"/><path class="cls-1" d="M277.78,86.56a7,7,0,0,0-6.86-5.22h-11a5.83,5.83,0,0,1-3.69-1c-.85-.69-.83-2,.09-4l1.93-4.26a1.78,1.78,0,0,0-1.95-2.48c-4.78.95-13.42,3.78-16.2,12L221.8,121.14v.17a60.22,60.22,0,0,1-2.75,5.75,34.82,34.82,0,0,1-2.74,4.29,10.78,10.78,0,0,1-2.92,2.74,5.89,5.89,0,0,1-3.09.95,3.19,3.19,0,0,1-2.23-.78,3.45,3.45,0,0,1-.85-2.66,8.61,8.61,0,0,1,.51-2.83c.34-1,.69-1.85,1-2.66l8.92-19A74.69,74.69,0,0,0,221,98.58a24.87,24.87,0,0,0,1.28-7.46q0-5.49-3.17-8.41a11.38,11.38,0,0,0-8-2.92,13.14,13.14,0,0,0-7.29,2.06A13.44,13.44,0,0,0,199,87.51h-.34a3.77,3.77,0,0,0-3.63-4.8h-3.39a3.79,3.79,0,0,0-3.43,2.2l-16.66,36.4v0a29.65,29.65,0,0,1-3.76,5.73,23,23,0,0,1-5,4.46,24.31,24.31,0,0,1-6,2.83,22.56,22.56,0,0,1-6.86,1,12.11,12.11,0,0,1-7.21-2,6.64,6.64,0,0,1-2.74-5.75,16.78,16.78,0,0,1,.17-2.32,12.11,12.11,0,0,1,.68-2.66L143.4,116q0,3.78,2.83,5.32a12.48,12.48,0,0,0,6.09,1.55,17.57,17.57,0,0,0,11.23-4q5.07-4,9.53-14a26.21,26.21,0,0,0,2-5.83,27.39,27.39,0,0,0,.6-5.49,13.92,13.92,0,0,0-3.6-9.87q-3.62-3.86-11.33-3.86a21,21,0,0,0-7.29,1.29,21.3,21.3,0,0,0-6.6,4A33.85,33.85,0,0,0,141,91.72a67.94,67.94,0,0,0-5.31,9.52l-6,13c-.57,1.26-1.09,2.51-1.54,3.77a32.53,32.53,0,0,0-1,3.26h0a61.4,61.4,0,0,1-2.75,5.75,34.82,34.82,0,0,1-2.74,4.29,10.78,10.78,0,0,1-2.92,2.74,5.89,5.89,0,0,1-3.09.95,3.19,3.19,0,0,1-2.23-.78,3.45,3.45,0,0,1-.85-2.66,8.61,8.61,0,0,1,.51-2.83c.34-1,.69-1.85,1-2.66l15.6-34a6.63,6.63,0,1,0-12-5.52l-15.9,34.73a37.08,37.08,0,0,0-2.15,6.26,26.05,26.05,0,0,0-.77,6.09,20.71,20.71,0,0,0,.77,5.75,12.13,12.13,0,0,0,2.49,4.63,11.43,11.43,0,0,0,4.46,3.09,17.33,17.33,0,0,0,6.52,1.12,18.53,18.53,0,0,0,9.35-2.41,30,30,0,0,0,7.14-5.74,16.24,16.24,0,0,0,3,3.17,22.48,22.48,0,0,0,7.64,3.95,34.56,34.56,0,0,0,10.12,1.37,31.13,31.13,0,0,0,10.81-1.89c.57-.21,1.12-.45,1.68-.69a22.25,22.25,0,0,0,17.59-13l5.24-11.69s0,0,0,0h0L194,102.44q1-2.06,2.14-4a21.65,21.65,0,0,1,2.4-3.34,9.35,9.35,0,0,1,2.83-2.23,6.79,6.79,0,0,1,3.09-.77,2.68,2.68,0,0,1,2.32.85,3.84,3.84,0,0,1,.6,2.23,9.87,9.87,0,0,1-.52,3,17.33,17.33,0,0,1-1,2.65l-9.09,19.56a38.53,38.53,0,0,0-2.32,6.61,26,26,0,0,0-.77,6.09A16.19,16.19,0,0,0,197.27,144c2.4,2.85,5.88,4.29,10.46,4.29a18.53,18.53,0,0,0,9.35-2.41,30.44,30.44,0,0,0,7.64-6.26,51.6,51.6,0,0,0,6.17-8.66q2.75-4.8,5-9.61h0l13-28.65a5.68,5.68,0,0,0,3.26,1.8,22.61,22.61,0,0,0,4.64.43h6.51L233.2,133.17a5.69,5.69,0,0,0,.54,7.68,19.88,19.88,0,0,0,13.56,5.34h10.16a6.79,6.79,0,0,0,6.14-3.9l.09-.19a6.65,6.65,0,0,0-6-9.47h-7.22l23.84-30.28A18.62,18.62,0,0,0,277.78,86.56ZM149.57,103.3q.85-1.89,1.89-3.78c.69-1.25,1.4-2.46,2.14-3.6a10,10,0,0,1,2.58-2.75,5.16,5.16,0,0,1,3-1,2.46,2.46,0,0,1,2.15.85,3.6,3.6,0,0,1,.6,2.06,12.85,12.85,0,0,1-.78,4,22.62,22.62,0,0,1-1.63,3.86A24.07,24.07,0,0,1,156,108.7,6.38,6.38,0,0,1,151,111a4.71,4.71,0,0,1-2.32-.52,3.34,3.34,0,0,1-1.46-1.89Z"/><path class="cls-2" d="M373,98.24a23.52,23.52,0,0,0-5.23-7.47,22.37,22.37,0,0,0-7.64-4.72A26.21,26.21,0,0,0,351,84.43a21.9,21.9,0,0,0-8.66,1.71,23.22,23.22,0,0,0-7.12,4.72,22,22,0,0,0-4.89,7.2c-1.2,2.81-2.33,5.91-1.8,9.18,2,12.65,15.31,7.81,14.08,2.61a0,0,0,0,1,0,0,11.16,11.16,0,0,1-.52-3.26,7.74,7.74,0,0,1,.69-3.35,10.07,10.07,0,0,1,1.8-2.66,6.82,6.82,0,0,1,2.83-1.8,11.34,11.34,0,0,1,3.77-.6,11.59,11.59,0,0,1,3.69.6,8.57,8.57,0,0,1,3.18,1.89,10.42,10.42,0,0,1,2.31,3.43,12.93,12.93,0,0,1,.95,5.23,16.14,16.14,0,0,1-2.15,8.41,19.32,19.32,0,0,1-5.4,5.92,23.49,23.49,0,0,1-7.29,3.43,28.86,28.86,0,0,1-7.64,1.11,31.28,31.28,0,0,1-7.8-1,30.64,30.64,0,0,1-7.3-2.83,16.69,16.69,0,0,1-5.23-4.37A8.51,8.51,0,0,1,317,117l4.47-9.77a33.06,33.06,0,0,0,2.32-6.43,26,26,0,0,0,.77-6.09A15.45,15.45,0,0,0,320.79,84q-3.78-4.2-11.67-4.21a21,21,0,0,0-8.75,1.72A24.37,24.37,0,0,0,293.68,86a32,32,0,0,0-5.06,6.09,52.33,52.33,0,0,0-3.69,6.78l-10.29,22.47a41.75,41.75,0,0,0-2.4,6.78,25.48,25.48,0,0,0-.86,6.43,14.36,14.36,0,0,0,3.43,9.78q3.44,3.94,12.18,3.95a19.68,19.68,0,0,0,8.49-1.81,27.11,27.11,0,0,0,6.95-4.63,33.51,33.51,0,0,0,5.49-6.52c1-1.51,1.88-3,2.69-4.58a30.45,30.45,0,0,0,3.57,3.21,36.52,36.52,0,0,0,11.15,5.66,42.78,42.78,0,0,0,13,2,36.32,36.32,0,0,0,13.64-2.66,39.56,39.56,0,0,0,11.75-7.3,36.48,36.48,0,0,0,8.23-10.72A28.24,28.24,0,0,0,375,107.93,23.38,23.38,0,0,0,373,98.24Zm-74.72,27.19c-.45.91-1,1.92-1.54,3a21.57,21.57,0,0,1-2,3.09,13.34,13.34,0,0,1-2.49,2.49,5.33,5.33,0,0,1-3.26,1,3.25,3.25,0,0,1-2.66-.95,3.54,3.54,0,0,1-.77-2.31,12.42,12.42,0,0,1,.68-4,38.25,38.25,0,0,1,1.89-4.37l9.95-21.62c.46-.91,1-1.91,1.55-3a18.2,18.2,0,0,1,2.05-3.09,13.86,13.86,0,0,1,2.66-2.49,5.42,5.42,0,0,1,3.18-1,3.37,3.37,0,0,1,2.83,1,3.83,3.83,0,0,1,.68,2.58,13,13,0,0,1-.68,3.34,2.09,2.09,0,0,0-.08.23,23.84,23.84,0,0,0-4.9,5.86,15.82,15.82,0,0,0-2.14,8.24c0,.42,0,.84,0,1.26Z"/><path class="cls-3" d="M326,169.5a3.42,3.42,0,0,0,2.22-.82l16.92-14.44a3.22,3.22,0,0,0-2.09-5.67,14,14,0,0,0-10.53,4.8l-9.1,10.47A3.42,3.42,0,0,0,326,169.5Z"/><path class="cls-3" d="M420.43,209.33c-.55-2.1-1.62-3.79-2.19-5.52-2.52-7.59-14.75-5.27-11.53,4.23a17.6,17.6,0,0,1,1.2,7.12,24.22,24.22,0,0,1-2,10,23.58,23.58,0,0,1-5.4,7.72,23.92,23.92,0,0,1-7.81,5,25.42,25.42,0,0,1-9.35,1.71,22.62,22.62,0,0,1-8.49-1.54,19.85,19.85,0,0,1-6.69-4.37,21.06,21.06,0,0,1-4.46-6.61,20,20,0,0,1-1.63-8.06,23.75,23.75,0,0,1,1-6.87,56.86,56.86,0,0,1,2.57-6.86l15.44-33.48a5.79,5.79,0,0,0-10.25-5.35l-1.24,2.12a7.71,7.71,0,0,0-3.78-5.92,12.25,12.25,0,0,0-6.34-2,17,17,0,0,0-8.58,2.14,28.12,28.12,0,0,0-6.61,5.15,32.6,32.6,0,0,0-4.63,6.17,50.06,50.06,0,0,0-2.66,5.24l-9.43,20.41a41.63,41.63,0,0,0-1.86,4.3c-.64,1.41-1.28,2.7-1.92,3.85a34.82,34.82,0,0,1-2.74,4.29,11,11,0,0,1-2.92,2.75,5.87,5.87,0,0,1-3.08.94,3.26,3.26,0,0,1-2.24-.77,3.46,3.46,0,0,1-.85-2.66,8.56,8.56,0,0,1,.51-2.83c.34-1,.69-1.86,1-2.66l11.13-24.25a6.86,6.86,0,0,0-6.23-9.72h0a6.86,6.86,0,0,0-6.24,4l-11.53,25.16a59.17,59.17,0,0,1-2.74,5.75,34.8,34.8,0,0,1-2.75,4.29,10.82,10.82,0,0,1-2.91,2.75,5.87,5.87,0,0,1-3.09.94,3.22,3.22,0,0,1-2.23-.77,3.47,3.47,0,0,1-.86-2.66,8.33,8.33,0,0,1,.52-2.83c.34-1,.68-1.86,1-2.66l8.92-19.05a74.54,74.54,0,0,0,3.34-8.49,24.54,24.54,0,0,0,1.29-7.46q0-5.49-3.18-8.41a11.33,11.33,0,0,0-8-2.91,13,13,0,0,0-7.29,2.06,13.44,13.44,0,0,0-4.89,5.66h-.35a3.77,3.77,0,0,0-3.62-4.81h-3.39a3.76,3.76,0,0,0-3.43,2.2l-16.66,36.4h0c-1,2.17-2,4.09-2.92,5.74a34.82,34.82,0,0,1-2.74,4.29,11.73,11.73,0,0,1-2.83,2.75,5.49,5.49,0,0,1-3,.94,2.67,2.67,0,0,1-2.23-.86,3.18,3.18,0,0,1-.68-2.06,11.72,11.72,0,0,1,.43-3,15,15,0,0,1,1.11-3l16.32-35.3a5.71,5.71,0,0,0-10.21-5.09l-3.54,6.59a9.68,9.68,0,0,0-1-8.75q-2.57-3.76-8.57-3.77a13.88,13.88,0,0,0-5.75,1.28,21.52,21.52,0,0,0-5.49,3.69,34.74,34.74,0,0,0-5.06,5.84,50.29,50.29,0,0,0-4.46,7.89l-10.47,22.81a39.47,39.47,0,0,0-2.23,6.61,28.67,28.67,0,0,0-.85,6.78q0,6.86,3.6,10.2a12.61,12.61,0,0,0,8.92,3.35,15.41,15.41,0,0,0,7.55-1.89,20.28,20.28,0,0,0,6.09-5.23c.49-.62,1-1.27,1.43-1.95a15.19,15.19,0,0,0,.88,2.21,12.46,12.46,0,0,0,3,3.94,11,11,0,0,0,4,2.23,15.54,15.54,0,0,0,4.63.69,18.52,18.52,0,0,0,9.35-2.4,30.27,30.27,0,0,0,7.63-6.26,51.57,51.57,0,0,0,6.18-8.67q2.75-4.8,5-9.61h0l8.41-18.87c.69-1.37,1.4-2.68,2.15-3.94a21.28,21.28,0,0,1,2.4-3.35,9.51,9.51,0,0,1,2.83-2.23,6.92,6.92,0,0,1,3.09-.77,2.65,2.65,0,0,1,2.31.86,3.79,3.79,0,0,1,.6,2.23,10.14,10.14,0,0,1-.51,3c-.35,1.09-.69,2-1,2.83l-9.09,19.39a37.89,37.89,0,0,0-2.32,6.6,26.05,26.05,0,0,0-.77,6.09,16.24,16.24,0,0,0,3.6,10.81q3.6,4.29,10.47,4.29a18.54,18.54,0,0,0,9.35-2.4,29.71,29.71,0,0,0,4.33-3,12.81,12.81,0,0,0,1,1.25,12.3,12.3,0,0,0,4.64,3.08,17.75,17.75,0,0,0,6.6,1.12,18.52,18.52,0,0,0,9.35-2.4,29.86,29.86,0,0,0,3.85-2.64,10.49,10.49,0,0,0,1.21,1.52q3.44,3.53,9.44,3.52a15.51,15.51,0,0,0,5.31-.94,19.46,19.46,0,0,0,5-2.75,24.86,24.86,0,0,0,2.17-1.84,28.77,28.77,0,0,0,2.63,10.16,30.85,30.85,0,0,0,7.47,10,35.26,35.26,0,0,0,11,6.6,36.78,36.78,0,0,0,13.29,2.41A38.26,38.26,0,0,0,397.36,250a43.15,43.15,0,0,0,12.35-7.38,36,36,0,0,0,8.66-11,29.28,29.28,0,0,0,3.26-13.55A34.93,34.93,0,0,0,420.43,209.33ZM234.12,182.91l-7.72,16.81c-1,2.18-2.06,4.26-3.09,6.26a40.19,40.19,0,0,1-3.09,5.15,15.84,15.84,0,0,1-3.26,3.43,5.89,5.89,0,0,1-3.6,1.29,2.67,2.67,0,0,1-2.23-.86,3.43,3.43,0,0,1-.69-2.23,12.11,12.11,0,0,1,.78-3.94,49.63,49.63,0,0,1,2-4.81l8.06-17.5c1-2.28,2-4.29,3-6a28.14,28.14,0,0,1,2.92-4.29,11.11,11.11,0,0,1,2.83-2.49,5.62,5.62,0,0,1,2.75-.77,3.74,3.74,0,0,1,2.66.77,2.93,2.93,0,0,1,.77,2.15,11.54,11.54,0,0,1-.69,3.6A26.48,26.48,0,0,1,234.12,182.91Zm110.55,31.38a6.53,6.53,0,0,1-3.88,1.56,2.79,2.79,0,0,1-2.37-.86,3.49,3.49,0,0,1-.68-2.23,12.34,12.34,0,0,1,.77-3.94,49.63,49.63,0,0,1,2-4.81l8.07-17.5c1-2.28,2-4.29,3-6a26.76,26.76,0,0,1,2.92-4.29,11,11,0,0,1,2.83-2.49A5.56,5.56,0,0,1,360,173a3.28,3.28,0,0,1,2.75.94,4,4,0,0,1,.68,2.41,9.64,9.64,0,0,1-.6,3.17,29.64,29.64,0,0,1-1.46,3.43l-10.8,22.47c-.46.92-1,2-1.55,3.18a18,18,0,0,1-2.14,3.43A15.35,15.35,0,0,1,344.67,214.29Z"/><path class="cls-4" d="M128.18,202l16.68-36.44a3.7,3.7,0,0,1,3.36-2.17h3.61a3.77,3.77,0,0,1,3.62,4.81h.35a18.09,18.09,0,0,1,5-5.32,12.66,12.66,0,0,1,7.72-2.4,9.38,9.38,0,0,1,6.35,2.06,11.45,11.45,0,0,1,3.43,5,22,22,0,0,1,5.92-5,13.88,13.88,0,0,1,7.12-2.06,13,13,0,0,1,9,3.17q3.51,3.18,3.51,9.35a26.56,26.56,0,0,1-1,6.78,49.81,49.81,0,0,1-2.91,8L192,205.06a62.14,62.14,0,0,0-3.35,8.75,30.5,30.5,0,0,0-1.46,8.75,19.6,19.6,0,0,0,1.29,7.12,15.17,15.17,0,0,0,4,5.84,19.89,19.89,0,0,0,7,3.94A32.84,32.84,0,0,0,210,240.92a26,26,0,0,0,3.17-.26,27.3,27.3,0,0,0,4-.77c9.27-2.64,10.77,14.24-4.59,14h0a42.13,42.13,0,0,1-4.8.26,40.78,40.78,0,0,1-15.44-2.66,30.67,30.67,0,0,1-10.72-7,28.14,28.14,0,0,1-6.26-10,34.18,34.18,0,0,1-2.06-11.84,36.38,36.38,0,0,1,1.28-9.52,64.77,64.77,0,0,1,3.18-9l10.29-22.47a18.62,18.62,0,0,0,1-2.66,10.13,10.13,0,0,0,.52-3,3.8,3.8,0,0,0-.61-2.23,2.65,2.65,0,0,0-2.31-.86,6.29,6.29,0,0,0-3.6,1,11.72,11.72,0,0,0-2.75,2.57,21.7,21.7,0,0,0-2.14,3.35c-.63,1.2-1.18,2.32-1.63,3.34l-18.5,40a6.51,6.51,0,0,1-5.91,3.78h-.23A6.52,6.52,0,0,1,146,217.6l16.66-36a18.62,18.62,0,0,0,1-2.66,10.09,10.09,0,0,0,.51-3,3.79,3.79,0,0,0-.6-2.23,2.9,2.9,0,0,0-2.49-.86q-2.91,0-6.09,4.2a61.59,61.59,0,0,0-5.83,9.53q-2.66,5.31-4.63,10c-1.32,3.08-2.09,4.92-2.32,5.49l-9.42,21a6.52,6.52,0,0,1-5.95,3.85h0A6.51,6.51,0,0,1,121,217.6Z"/><path class="cls-1" d="M38.1,175.11c-.2.37-.43.46-.77.25l-.86-.5c-.36-.18-.38-.43-.16-.78,1.62-2.12,1.81-4,.19-5.86-1.86-2.11-4.15-2-6.43,0L20,177.16c-.31.27-.49.28-.76,0l-.7-.8c-.27-.3-.26-.5,0-.77l10.07-8.92c3.15-2.79,6.6-2.84,9.36.28C40.36,169.58,40.15,172.34,38.1,175.11Z"/><path class="cls-1" d="M23.64,157.41l-8,4.32c-.36.19-.51.14-.68-.16l-.48-.89c-.16-.3-.13-.49.22-.68l7.91-4.27c2.28-1.23,3-2.74,1.8-4.9a7.35,7.35,0,0,0-2.05-2.52.74.74,0,0,0-.93,0l-10.11,5.46c-.35.19-.51.14-.67-.16l-.48-.89c-.16-.3-.13-.48.22-.67l10.69-5.78a1.44,1.44,0,0,1,1.9.12,11.34,11.34,0,0,1,3.12,3.84C27.83,153.35,26.76,155.73,23.64,157.41Z"/><path class="cls-1" d="M14.52,138.74l-3.58,1c-3.66,1-6.38-.3-7.38-3.93s.9-6.16,4.23-7.08l1.53-.42a.74.74,0,0,1,1,.56l2.31,8.4,1.58-.43c2.33-.65,3.45-2.23,2.78-4.65a3.83,3.83,0,0,0-3.3-3.09c-.41-.09-.51-.24-.42-.66l.19-.71a.52.52,0,0,1,.73-.41c2,.38,3.67,1.64,4.44,4.45C19.69,135.49,17.88,137.81,14.52,138.74Zm-5.38-8.4-1,.26c-2.47.68-3.7,2.28-3,4.74s2.57,3.27,5,2.59l.94-.26Z"/><path class="cls-1" d="M19.48,117.72c-.39.25-.62.2-.84-.14l-.4-.7c-.22-.36-.14-.57.19-.79a3.45,3.45,0,0,0,2.12-3.55c-.12-2.58-1.71-3.52-4.44-3.4l-1.81.08a8.63,8.63,0,0,1,1,3.87c.16,3.63-1.81,5.3-5.31,5.46l-3.83.16c-3.82.17-6-1.52-6.15-5.43a10.9,10.9,0,0,1,.64-4.43c.37-.85.68-1,1.63-1l13.65-.61c3.77-.17,6.23,1.25,6.4,5.25A5.2,5.2,0,0,1,19.48,117.72Zm-6.94-8.42-9.6.43c-.43,0-.52.07-.73.52a7.58,7.58,0,0,0-.42,2.9c.12,2.64,1.47,3.73,4.34,3.61l3.65-.17c2.56-.11,3.81-1.17,3.7-3.65A7.63,7.63,0,0,0,12.54,109.3Z"/><path class="cls-1" d="M10.75,97.63l-5-.91C2.55,96.13,1,93.65,1.6,90.14s3-5.33,6.25-4.74l5,.91c3.22.59,4.79,3.07,4.13,6.64S14,98.22,10.75,97.63Zm1.72-9.39-5-.92c-2.15-.39-3.72.85-4.14,3.14S4,94.4,6.13,94.8l5,.91c2.15.39,3.72-.84,4.13-3.08S14.62,88.63,12.47,88.24Z"/><path class="cls-1" d="M17,78.36c-.38,0-.57-.18-.55-.54l.12-.95c0-.39.14-.47.56-.48,1.9.14,3-.79,3.73-2.49.92-2.17.45-3.56-1-4.19C18,68.93,17.09,70,16,72c-1.34,2.4-2.79,4.51-6.08,3.12-2.41-1-3.19-3.39-1.89-6.46C9.21,65.87,10.88,65,12.92,65c.44,0,.63.14.63.51l0,.8c0,.43-.11.49-.51.54-1.42,0-2.56.51-3.38,2.44s-.43,3.38,1.06,4c2.06.88,2.83-.42,3.92-2.4,1.4-2.5,3-4.25,6-3,2.44,1,3.29,3.37,1.89,6.68C21.35,77.2,19.72,78.54,17,78.36Z"/><path class="cls-1" d="M31,49.41c-2.25-2.23-2-4.78-1.19-7.26-1.86,0-3.75-.23-5.16-1.63a4.83,4.83,0,0,1,.05-7.08,4.76,4.76,0,0,1,6.88-.11c1.92,1.9,1.79,3.88.74,6.85l-.1.31,7,.07,0-2.67c0-.32.16-.45.47-.47l.93,0c.27,0,.41.12.43.46l.06,2.81,5,.08c.45,0,.51.22.21.53l-.91.92a.83.83,0,0,1-.8.31H41.1c-.11,3.91-.89,5.44-2.31,6.87A5.37,5.37,0,0,1,31,49.41Zm-.41-9.65c.72-2.12,1.27-3.6-.27-5.13a3.08,3.08,0,0,0-4.41,0,3.14,3.14,0,0,0,0,4.56c1.16,1.15,2.71,1.22,4.52,1.19Zm8.72,2.61-7.65-.09c-.8,2.24-.94,4.06.7,5.68a3.63,3.63,0,0,0,5.19.08C38.61,46.93,39.16,45.85,39.28,42.37Z"/><path class="cls-1" d="M63,29.72,55.81,11.85c-.16-.4-.11-.58.26-.73l1-.38c.37-.16.56-.08.72.32L61,19l9-3.66L66.8,7.4c-.16-.4-.08-.58.29-.73l1-.39c.37-.15.53-.06.69.34L76,24.48c.17.4.11.58-.26.73l-1,.39c-.37.15-.56.07-.72-.33l-3.3-8.16-9,3.66L65,28.93c.16.4.08.59-.29.74l-1,.39C63.37,30.21,63.2,30.12,63,29.72Z"/><path class="cls-1" d="M84.18,18.06l-.69-5c-.44-3.25,1.42-5.54,5-6s6,1.21,6.44,4.46l.69,5c.44,3.25-1.42,5.51-5,6S84.62,21.31,84.18,18.06Zm9.46-1.3-.68-5c-.3-2.17-2-3.28-4.27-3s-3.56,1.82-3.26,4l.69,5c.29,2.17,2,3.28,4.21,3S93.94,18.93,93.64,16.76Z"/><path class="cls-1" d="M106,20.8a1.37,1.37,0,0,1-.86-1.67L106.83.48c0-.38.16-.51.54-.47l1,.08c.37,0,.48.19.44.56l-.58,6.42A9.07,9.07,0,0,1,112,6.52c3.59.33,5.18,2.49,4.85,6.11l-.37,4.07c-.34,3.81-2.33,5.71-6.23,5.35A10.14,10.14,0,0,1,106,20.8Zm8.57-4.31.36-4c.23-2.55-.85-4-3.29-4.2a7.65,7.65,0,0,0-3.6.57l-.89,9.8a.63.63,0,0,0,.39.78,7.47,7.47,0,0,0,2.84.81C113,20.51,114.35,19.24,114.57,16.49Z"/><path class="cls-1" d="M125.65,23.83a1.36,1.36,0,0,1-.47-1.81L131,4.21c.11-.35.27-.45.62-.34l.93.31c.36.12.42.29.31.64l-2,6.13a8.86,8.86,0,0,1,3.85.32c3.42,1.12,4.49,3.58,3.37,7l-1.27,3.88c-1.19,3.64-3.55,5.05-7.27,3.83A10.08,10.08,0,0,1,125.65,23.83ZM135,21.55l1.24-3.8c.8-2.44.06-4.07-2.27-4.83a7.68,7.68,0,0,0-3.64-.25l-3,9.35a.65.65,0,0,0,.2.86A7.75,7.75,0,0,0,130,24.3C132.55,25.12,134.13,24.18,135,21.55Z"/><path class="cls-1" d="M143.45,30.9,150,18.8c.19-.35.37-.38.7-.21l.81.44c.35.2.4.35.21.71l-6.55,12.09c-.18.33-.35.4-.7.21l-.81-.44C143.33,31.42,143.27,31.23,143.45,30.9Zm8.63-16.43.14-.25c.35-.66.68-.78,1.24-.48l.58.32c.58.31.63.64.28,1.29l-.14.26c-.38.7-.66.78-1.24.47l-.58-.31C151.78,15.45,151.7,15.18,152.08,14.47Z"/><path class="cls-1" d="M156,32.61l2.32-2.9c2.37-3,5.34-3.5,8.28-1.14s2.89,5.51.73,8.21l-1,1.23a.74.74,0,0,1-1.15.15l-6.8-5.45-1,1.28c-1.51,1.89-1.48,3.83.48,5.39a3.81,3.81,0,0,0,4.48.57c.39-.16.56-.1.73.29l.26.69a.5.5,0,0,1-.35.75c-1.83.86-3.94.82-6.21-1C153.68,38.26,153.79,35.33,156,32.61Zm9.29,3.63.61-.76c1.6-2,1.66-4-.34-5.61s-4-1.13-5.59.87l-.61.76Z"/><path class="cls-1" d="M169.43,47.45c.22-.32.44-.42.74-.22l.77.57c.32.22.35.35.16.72-1,1.59-.77,3,.36,4.46,1.46,1.86,2.9,2.12,4.17,1.12,1.58-1.24,1.08-2.53-.12-4.44-1.46-2.32-2.59-4.61.22-6.81,2.06-1.62,4.5-1.16,6.56,1.47,1.84,2.36,1.83,4.26.8,6-.21.38-.43.48-.75.3l-.69-.41c-.36-.23-.37-.33-.22-.71.72-1.22.79-2.48-.5-4.13s-2.75-2-4-1c-1.76,1.39-1,2.69.2,4.6,1.51,2.43,2.26,4.7-.25,6.67-2.09,1.63-4.54,1.25-6.76-1.58C168.35,51.81,168,49.73,169.43,47.45Z"/></g></g></svg>